<?xml version="1.0" standalone="no"?>
<!DOCTYPE svg PUBLIC "-//W3C//DTD SVG 20010904//EN"
 "http://www.w3.org/TR/2001/REC-SVG-20010904/DTD/svg10.dtd">
<svg version="1.0" xmlns="http://www.w3.org/2000/svg"
 width="600.000000pt" height="234.000000pt" viewBox="0 0 600.000000 234.000000"
 preserveAspectRatio="xMidYMid meet">
<g transform="translate(0.000000,234.000000) scale(0.100000,-0.100000)"
fill="#FFFFFF" stroke="none">

<path d="M385 1758 c-25 -75 -34 -123 -25 -133 5 -7 28 -20 51 -30 32 -15 39
-23 35 -39 -5 -21 -80 -410 -181 -931 -31 -159 -61 -315 -67 -346 -19 -93 -27
-89 199 -89 l198 0 49 252 49 252 41 -47 41 -48 180 1 180 1 105 102 c69 67
106 111 108 127 2 14 21 124 43 245 50 279 45 252 69 378 l20 108 -91 105 -90
104 -182 0 -182 0 -63 -50 c-34 -28 -62 -58 -62 -67 0 -13 -3 -14 -11 -6 -9 9
-8 16 4 27 18 18 31 71 22 86 -10 16 -434 14 -440 -2z m390 -70 c-3 -24 -9
-51 -11 -61 -12 -40 27 -27 104 37 l80 66 168 -1 169 0 75 -91 76 -90 -22
-112 c-12 -61 -34 -176 -48 -256 -15 -80 -37 -193 -48 -251 l-20 -107 -89 -88
-88 -87 -166 -1 -166 -1 -51 58 c-27 32 -55 56 -61 54 -11 -3 -22 -36 -31 -87
-10 -59 -78 -407 -82 -423 -5 -17 -19 -18 -170 -16 -90 1 -164 3 -164 4 0 0
13 68 29 150 17 83 55 281 86 440 31 160 76 391 101 515 24 124 44 232 44 241
0 9 -20 27 -45 40 -49 26 -51 30 -34 78 l11 31 180 0 180 0 -7 -42z"/>

<path d="M847 1480 l-38 -35 -39 -205 c-22 -113 -44 -225 -49 -250 -10 -44 -9
-46 27 -77 34 -30 43 -32 108 -33 109 0 110 2 173 300 28 135 51 254 51 266 0
11 -11 31 -24 43 -20 19 -36 23 -98 24 -71 2 -74 1 -111 -33z m183 -25 c9 -11
8 -30 -4 -87 -8 -40 -31 -149 -51 -242 -20 -100 -42 -177 -52 -188 -24 -26
-123 -26 -148 2 -17 18 -16 28 26 247 51 275 56 283 155 283 42 0 65 -5 74
-15z"/>

<path d="M4160 2150 c-4 -8 -11 -33 -14 -55 -4 -22 -10 -50 -13 -62 -4 -17 4
-26 40 -47 l45 -27 -108 -267 c-60 -147 -155 -384 -213 -527 l-105 -260 -93
-5 c-128 -7 -144 -3 -142 41 0 19 6 59 13 89 13 66 70 360 70 366 0 2 48 5
107 6 l108 3 22 125 c12 69 24 143 25 165 l3 40 -100 5 -101 5 27 135 c15 74
23 139 19 144 -9 9 -400 15 -405 5 -2 -3 -13 -61 -25 -130 -29 -171 -22 -159
-84 -159 -28 0 -57 5 -64 12 -9 9 -15 9 -24 0 -7 -7 -45 -12 -99 -12 -139 0
-239 -46 -274 -124 -8 -20 -14 -25 -14 -13 -1 10 6 28 15 42 9 14 14 39 12 60
l-3 37 -213 0 c-117 -1 -217 -4 -223 -7 -5 -4 -7 -15 -4 -25 3 -10 0 -28 -7
-39 -11 -19 -8 -26 39 -73 l52 -53 -19 -90 c-11 -49 -22 -103 -24 -120 -3 -16
-19 -102 -36 -190 -71 -364 -100 -524 -100 -542 0 -10 49 -13 213 -13 l213 0
12 72 c56 346 103 592 118 623 22 48 77 101 118 115 38 12 97 15 219 12 79 -2
88 -4 83 -19 -20 -65 -109 -521 -113 -578 -6 -100 20 -149 102 -190 l60 -30
399 -3 c250 -2 402 0 408 6 6 6 39 77 73 159 l63 148 171 3 171 2 0 -27 c1
-16 3 -55 6 -88 3 -33 9 -91 12 -130 l7 -70 320 0 c176 -1 374 1 441 3 l121 3
53 267 c53 273 78 398 150 767 22 116 45 234 51 263 11 53 11 54 73 82 l62 27
12 65 c7 36 12 73 12 82 0 14 -31 16 -329 16 l-329 0 -14 -62 c-17 -73 -14
-78 53 -115 27 -14 46 -29 44 -33 -4 -7 -28 -126 -171 -850 -29 -151 -56 -285
-59 -298 -4 -15 -19 -29 -41 -38 -20 -8 -37 -14 -38 -12 -2 2 -20 300 -40 663
-21 363 -41 677 -44 698 l-7 37 -368 3 c-320 2 -370 0 -377 -13z m1667 -68
c-10 -46 -12 -48 -71 -74 -56 -24 -62 -29 -68 -65 -13 -72 -169 -868 -209
-1066 -21 -109 -39 -206 -39 -216 0 -17 -15 -19 -211 -26 -115 -4 -212 -5
-215 -2 -3 2 -2 23 2 46 6 38 12 45 52 64 37 18 45 27 48 52 2 28 192 996 230
1172 3 19 -5 28 -51 54 -30 17 -55 34 -55 39 0 4 3 22 6 39 l7 31 292 0 292 0
-10 -48z m-950 -5 c13 -244 61 -1060 73 -1237 5 -80 10 -160 10 -177 l0 -33
-169 0 -169 0 -7 87 c-4 49 -10 120 -13 158 l-7 70 -201 3 -201 2 -68 -160
-68 -160 -168 0 -167 0 13 28 c7 15 74 178 148 362 74 184 188 466 252 625 64
160 123 300 130 312 13 20 11 22 -39 48 l-53 27 10 44 10 44 341 0 341 0 2
-43z m-1182 -168 c-9 -46 -21 -112 -28 -146 l-14 -63 104 0 c120 0 112 15 83
-144 -11 -60 -20 -111 -20 -113 0 -2 -49 -3 -110 -3 -100 0 -110 -2 -110 -19
0 -10 -18 -112 -41 -227 -57 -289 -57 -298 -24 -320 36 -23 199 -29 239 -9 14
8 26 10 26 5 0 -4 -7 -10 -14 -13 -15 -6 -41 -58 -86 -170 l-23 -59 -196 4
c-175 3 -201 6 -243 25 -25 11 -54 33 -64 48 -23 35 -29 110 -14 176 6 30 34
162 61 294 27 132 52 248 55 258 5 15 -3 17 -66 17 -63 0 -71 2 -67 18 3 9 8
40 12 67 3 28 11 76 17 108 l11 57 71 0 72 0 22 128 c12 70 23 135 22 144 0
16 16 18 168 20 92 2 168 3 169 2 2 0 -4 -38 -12 -85z m-521 -188 c3 -5 -1
-11 -9 -15 -15 -6 -29 7 -18 18 9 9 21 8 27 -3z m-428 -53 c-25 -142 -21 -146
63 -60 68 71 113 88 237 91 l91 2 -12 -78 c-7 -43 -15 -98 -19 -123 l-6 -45
-73 0 c-99 -1 -155 -24 -211 -86 -49 -55 -70 -108 -86 -214 -17 -123 -87 -516
-92 -521 -3 -2 -81 -3 -175 -2 l-169 3 28 140 c15 77 30 155 33 173 3 18 12
66 19 105 8 40 26 133 41 207 14 74 33 173 41 218 l17 84 -48 48 c-37 37 -46
52 -40 69 6 20 12 21 187 21 l180 0 -6 -32z m379 -228 c3 -5 1 -10 -4 -10 -6
0 -11 5 -11 10 0 6 2 10 4 10 3 0 8 -4 11 -10z m1877 -729 c-4 -14 -7 -43 -7
-64 1 -22 -3 -36 -10 -33 -5 2 -8 10 -6 17 2 8 3 37 3 66 0 39 4 50 14 46 10
-4 12 -13 6 -32z m-1292 -91 c0 -5 -4 -10 -10 -10 -5 0 -10 5 -10 10 0 6 5 10
10 10 6 0 10 -4 10 -10z"/>

<path d="M4472 1708 c-162 -391 -190 -463 -185 -470 6 -10 321 -10 326 0 2 4
-5 149 -17 322 -18 271 -23 315 -37 318 -12 2 -33 -38 -87 -170z m84 -5 c-1
-76 3 -204 7 -285 l9 -148 -116 0 c-64 0 -116 2 -116 4 0 3 43 109 95 237 52
127 95 238 95 245 0 8 6 14 13 14 8 0 8 3 -2 9 -12 8 -13 14 -3 35 6 14 13 26
15 26 2 0 4 -62 3 -137z"/>

</g>
</svg>